<svg width="14" height="21" viewBox="0 0 14 21" fill="none" xmlns="http://www.w3.org/2000/svg">
<path d="M1.61625 20.5005C1.3476 20.4999 1.0837 20.4124 0.850517 20.2467C0.325444 19.8771 -0.000976562 19.1597 -0.000976562 18.3809V2.62014C-0.000976562 1.83916 0.325444 1.12395 0.850517 0.754387C1.08925 0.583973 1.36046 0.496337 1.63579 0.500639C1.91112 0.504942 2.18047 0.601024 2.41567 0.778844L13.2606 8.84185C13.4866 9.01787 13.673 9.26232 13.8021 9.55225C13.9313 9.84218 13.999 10.1681 13.999 10.4994C13.999 10.8308 13.9313 11.1567 13.8021 11.4467C13.673 11.7366 13.4866 11.981 13.2606 12.1571L2.41392 20.2222C2.17322 20.403 1.89752 20.4991 1.61625 20.5005Z" fill="white"/>
</svg>
